<svg width="28" height="28" viewBox="0 0 28 28" fill="none" xmlns="http://www.w3.org/2000/svg">
<path d="M14 4.66666L5.83337 8.16666L14 11.6667L22.1667 8.16666L14 4.66666Z" stroke="#D2D2D2" stroke-opacity="0.8" stroke-width="2" stroke-linejoin="round"/>
<path fill-rule="evenodd" clip-rule="evenodd" d="M8.83104 11.6273L5.43945 13.0809C5.07177 13.2384 4.83337 13.6 4.83337 14C4.83337 14.4 5.07177 14.7616 5.43945 14.9191L13.6061 18.4191C13.8577 18.527 14.1424 18.527 14.394 18.4191L22.5606 14.9191C22.9283 14.7616 23.1667 14.4 23.1667 14C23.1667 13.6 22.9283 13.2384 22.5606 13.0809L19.169 11.6273L16.6304 12.7153L19.6281 14L14 16.412L8.37197 14L11.3696 12.7153L8.83104 11.6273Z" fill="#D2D2D2" fill-opacity="0.8"/>
<path fill-rule="evenodd" clip-rule="evenodd" d="M8.83104 17.4607L5.43945 18.9142C5.07177 19.0718 4.83337 19.4333 4.83337 19.8333C4.83337 20.2334 5.07177 20.5949 5.43945 20.7525L13.6061 24.2525C13.8577 24.3603 14.1424 24.3603 14.394 24.2525L22.5606 20.7525C22.9283 20.5949 23.1667 20.2334 23.1667 19.8333C23.1667 19.4333 22.9283 19.0718 22.5606 18.9142L19.169 17.4607L16.6304 18.5486L19.6281 19.8333L14 22.2454L8.37197 19.8333L11.3696 18.5486L8.83104 17.4607Z" fill="#D2D2D2" fill-opacity="0.8"/>
</svg>
