<svg width="28" height="28" viewBox="0 0 28 28" fill="none" xmlns="http://www.w3.org/2000/svg">
<path d="M24.5 14H20.9037C20.3797 14 20.1178 14 19.8967 14.1183C19.6756 14.2367 19.5302 14.4546 19.2396 14.8906L18.0937 16.6094C17.8031 17.0454 17.6578 17.2633 17.4367 17.3817C17.2156 17.5 16.9536 17.5 16.4296 17.5H11.5704C11.0464 17.5 10.7844 17.5 10.5633 17.3817C10.3422 17.2633 10.1969 17.0454 9.90627 16.6094L8.7604 14.8906C8.46976 14.4546 8.32443 14.2367 8.10334 14.1183C7.88225 14 7.62026 14 7.0963 14H3.5" stroke="#D2D2D2" stroke-opacity="0.4" stroke-width="2"/>
<path d="M9.91669 9.33334L14 5.83334M14 5.83334L18.0834 9.33334M14 5.83334L14 14" stroke="#D2D2D2" stroke-opacity="0.4" stroke-width="2"/>
<path d="M5.83333 10.5L3.79289 12.5404C3.60536 12.728 3.5 12.9823 3.5 13.2475V20.1667C3.5 21.2712 4.39543 22.1667 5.5 22.1667H22.5C23.6046 22.1667 24.5 21.2712 24.5 20.1667V13.2475C24.5 12.9823 24.3946 12.728 24.2071 12.5404L22.1667 10.5" stroke="#D2D2D2" stroke-opacity="0.4" stroke-width="2" stroke-linecap="round"/>
</svg>
